<svg xmlns="http://www.w3.org/2000/svg" viewBox="0 0 64 64" role="img" aria-label="BST Events icon">
  <defs>
    <linearGradient id="g" x1="0%" y1="0%" x2="100%" y2="100%">
      <stop offset="0%" stop-color="#1e40af"/>
      <stop offset="100%" stop-color="#60a5fa"/>
    </linearGradient>
    <linearGradient id="o" x1="0%" y1="0%" x2="100%" y2="0%">
      <stop offset="0%" stop-color="#f97316"/>
      <stop offset="100%" stop-color="#fb923c"/>
    </linearGradient>
  </defs>
  <rect x="2" y="2" width="60" height="60" rx="14" fill="url(#g)"/>
  <rect x="8" y="8" width="48" height="48" rx="12" fill="#0b1533" opacity="0.85"/>
  <path d="M14 46h14c5 0 8-3 8-7 0-3-2-5-5-6 2-1 4-3 4-6 0-4-3-7-8-7H14v26Zm9-16h-4v-6h4c2 0 3 1 3 3s-1 3-3 3Zm0 10h-4v-6h4c2 0 3 1 3 3s-1 3-3 3Z" fill="#e2e8f0"/>
  <path d="M38 18h-6l9 14-9 14h6l6-9 6 9h6l-9-14 9-14h-6l-6 9-6-9Z" fill="url(#o)"/>
</svg>
